<?xml version="1.0" encoding="UTF-8" standalone="no"?>
<!DOCTYPE svg PUBLIC "-//W3C//DTD SVG 1.0//EN" "http://www.w3.org/TR/2001/REC-SVG-20010904/DTD/svg10.dtd">
<!-- Generated by Microsoft Visio 11.0, SVG Export, v1.0 RoundedRectangleDesign.svg Page-1 -->
<svg xmlns="http://www.w3.org/2000/svg" xmlns:xlink="http://www.w3.org/1999/xlink" xmlns:ev="http://www.w3.org/2001/xml-events"
		xmlns:v="http://schemas.microsoft.com/visio/2003/SVGExtensions/" width="11in" height="8.5in" viewBox="0 0 792 612"
		xml:space="preserve" color-interpolation-filters="sRGB" class="st13">
	<v:documentProperties v:langID="1033" v:viewMarkup="false">
		<v:userDefs>
			<v:ud v:nameU="msvNoAutoConnect" v:val="VT0(1):26"/>
		</v:userDefs>
	</v:documentProperties>

	<style type="text/css">
	<![CDATA[
		.st1 {stroke:#1f477d;stroke-dasharray:3.75,2.25;stroke-linecap:round;stroke-linejoin:round;stroke-width:0.25}
		.st2 {marker-end:url(#mrkr2-9);stroke:#1f477d;stroke-linecap:round;stroke-linejoin:round;stroke-width:0.75}
		.st3 {fill:#1f477d;fill-opacity:1;stroke:#1f477d;stroke-opacity:1;stroke-width:0.22935779816514}
		.st4 {fill:#ffffff;stroke:none;stroke-linecap:butt;stroke-width:7.2}
		.st5 {fill:#1f477d;font-family:Calibri;font-size:0.833336em}
		.st6 {fill:none;stroke:#000000;stroke-linecap:round;stroke-linejoin:round;stroke-width:0.75}
		.st7 {fill:#1f477d;font-family:Calibri;font-size:1.00001em}
		.st8 {fill:#ffffff;stroke:#1f477d;stroke-linecap:round;stroke-linejoin:round;stroke-width:0.75}
		.st9 {fill:#1f477d;stroke:#1f477d;stroke-linecap:round;stroke-linejoin:round;stroke-width:0.75}
		.st10 {fill:none;stroke:none;stroke-linecap:round;stroke-linejoin:round;stroke-width:0.75}
		.st11 {fill:#00b050;font-family:Calibri;font-size:1.00001em}
		.st12 {fill:none;stroke:none;stroke-linecap:round;stroke-linejoin:round;stroke-width:0.25}
		.st13 {fill:none;fill-rule:evenodd;font-size:12px;overflow:visible;stroke-linecap:square;stroke-miterlimit:3}
	]]>
	</style>

	<defs id="Markers">
		<g id="lend2">
			<path d="M 1 1 L 0 0 L 1 -1 L 1 1 " style="stroke:none"/>
		</g>
		<marker id="mrkr2-9" class="st3" v:arrowType="2" v:arrowSize="2" v:setback="4.36" refX="-4.36" orient="auto"
				markerUnits="strokeWidth" overflow="visible">
			<use xlink:href="#lend2" transform="scale(-4.36,-4.36) "/>
		</marker>
	</defs>
	<g v:mID="0" v:index="1" v:groupContext="foregroundPage">
		<title>Page-1</title>
		<v:pageProperties v:drawingScale="1" v:pageScale="1" v:drawingUnits="19" v:shadowOffsetX="9" v:shadowOffsetY="-9"/>
		<g id="shape33-1" v:mID="33" v:groupContext="shape" transform="translate(498.315,-457.348) rotate(-10.7054)">
			<title>Sheet.33</title>
			<path d="M0 612 L36.55 612" class="st1"/>
		</g>
		<g id="shape5-4" v:mID="5" v:groupContext="shape" transform="translate(612,-468)">
			<title>Sheet.5</title>
			<desc>radius</desc>
			<v:textBlock v:margins="rect(4,4,4,4)"/>
			<v:textRect cx="18" cy="612" width="36" height="0"/>
			<path d="M0 612 L32.73 612" class="st2"/>
			<rect v:rectContext="textBkgnd" x="5.50497" y="606" width="24.9903" height="12.0001" class="st4"/>
			<text x="5.5" y="615" class="st5" v:langID="1033"><v:paragraph v:horizAlign="1"/><v:tabList/>radius</text>		</g>
		<g id="shape2-12" v:mID="2" v:groupContext="shape" transform="translate(180,-252)">
			<title>Sheet.2</title>
			<rect x="0" y="396" width="432" height="216" class="st6"/>
		</g>
		<g id="shape3-14" v:mID="3" v:groupContext="shape" transform="translate(396,-360)">
			<title>Sheet.3</title>
			<desc>offsetWidth</desc>
			<v:textBlock v:margins="rect(4,4,4,4)"/>
			<v:textRect cx="108" cy="612" width="216" height="0"/>
			<path d="M0 612 L212.73 612" class="st2"/>
			<rect v:rectContext="textBkgnd" x="78.8025" y="604.8" width="58.3951" height="14.4001" class="st4"/>
			<text x="78.8" y="615.6" class="st7" v:langID="1033"><v:paragraph v:horizAlign="1"/><v:tabList/>offsetWidth</text>		</g>
		<g id="shape4-21" v:mID="4" v:groupContext="shape" transform="translate(-216,252) rotate(-90)">
			<title>Sheet.4</title>
			<desc>offsetHeight</desc>
			<v:textBlock v:margins="rect(4,4,4,4)"/>
			<v:textRect cx="54" cy="612" width="108" height="0"/>
			<path d="M0 612 L104.73 612" class="st2"/>
			<rect v:rectContext="textBkgnd" x="23.745" y="604.8" width="60.5102" height="14.4001" class="st4"/>
			<text x="23.75" y="615.6" class="st7" v:langID="1033"><v:paragraph v:horizAlign="1"/><v:tabList/>offsetHeight</text>		</g>
		<g id="shape6-28" v:mID="6" v:groupContext="shape" transform="translate(612,-252)">
			<title>Sheet.6</title>
			<path d="M0 612 L32.73 612" class="st2"/>
		</g>
		<g id="shape7-33" v:mID="7" v:groupContext="shape" transform="translate(180,972) rotate(180)">
			<title>Sheet.7</title>
			<path d="M0 612 L32.73 612" class="st2"/>
		</g>
		<g id="shape8-38" v:mID="8" v:groupContext="shape" transform="translate(180,756) rotate(180)">
			<title>Sheet.8</title>
			<path d="M0 612 L32.73 612" class="st2"/>
		</g>
		<g id="shape9-43" v:mID="9" v:groupContext="shape" transform="translate(-432,144) rotate(-90)">
			<title>Sheet.9</title>
			<path d="M0 612 L32.73 612" class="st2"/>
		</g>
		<g id="shape10-48" v:mID="10" v:groupContext="shape" transform="translate(3.83693E-013,144) rotate(-90)">
			<title>Sheet.10</title>
			<path d="M0 612 L32.73 612" class="st2"/>
		</g>
		<g id="shape11-53" v:mID="11" v:groupContext="shape" transform="translate(1224,360) rotate(90)">
			<title>Sheet.11</title>
			<path d="M0 612 L32.73 612" class="st2"/>
		</g>
		<g id="shape12-58" v:mID="12" v:groupContext="shape" transform="translate(792,360) rotate(90)">
			<title>Sheet.12</title>
			<path d="M0 612 L32.73 612" class="st2"/>
		</g>
		<g id="group15-63" transform="translate(389.813,-353.813)" v:mID="15" v:groupContext="group">
			<title>Sheet.15</title>
			<g id="shape13-64" v:mID="13" v:groupContext="shape">
				<title>Sheet.13</title>
				<ellipse cx="6.1875" cy="605.813" rx="6.1875" ry="6.1875" class="st8"/>
			</g>
			<g id="shape14-66" v:mID="14" v:groupContext="shape" transform="translate(3.51,-3.51)">
				<title>Sheet.14</title>
				<ellipse cx="2.745" cy="609.255" rx="2.745" ry="2.745" class="st9"/>
			</g>
		</g>
		<g id="shape16-68" v:mID="16" v:groupContext="shape" transform="translate(326.25,-342)">
			<title>Sheet.16</title>
			<desc>offsetDepth</desc>
			<v:textBlock v:margins="rect(4,4,4,4)"/>
			<v:textRect cx="33.75" cy="605.25" width="67.5" height="13.5"/>
			<rect x="0" y="598.5" width="67.5" height="13.5" class="st10"/>
			<text x="4.59" y="608.85" class="st7" v:langID="1033"><v:paragraph v:horizAlign="1"/><v:tabList/>offsetDepth</text>		</g>
		<g id="shape17-71" v:mID="17" v:groupContext="shape" transform="translate(531,-445.5)">
			<title>Sheet.17</title>
			<desc>coordIndex 0</desc>
			<v:textBlock v:margins="rect(4,4,4,4)"/>
			<v:textRect cx="40.5" cy="602" width="81" height="20"/>
			<rect x="0" y="592" width="81" height="20" class="st10"/>
			<text x="7.76" y="605.6" class="st11" v:langID="1033"><v:paragraph v:horizAlign="2"/><v:tabList/>coordIndex   0</text>		</g>
		<g id="shape18-74" v:mID="18" v:groupContext="shape" transform="translate(594,-252)">
			<title>Sheet.18</title>
			<desc>1</desc>
			<v:textBlock v:margins="rect(4,4,4,4)"/>
			<v:textRect cx="9.5" cy="602" width="19.01" height="20"/>
			<rect x="0" y="592" width="19" height="20" class="st10"/>
			<text x="6.46" y="605.6" class="st11" v:langID="1033"><v:paragraph v:horizAlign="1"/><v:tabList/>1</text>		</g>
		<g id="shape19-77" v:mID="19" v:groupContext="shape" transform="translate(180,-252)">
			<title>Sheet.19</title>
			<desc>2</desc>
			<v:textBlock v:margins="rect(4,4,4,4)"/>
			<v:textRect cx="9.5" cy="602" width="19.01" height="20"/>
			<rect x="0" y="592" width="19" height="20" class="st10"/>
			<text x="6.46" y="605.6" class="st11" v:langID="1033"><v:paragraph v:horizAlign="1"/><v:tabList/>2</text>		</g>
		<g id="shape20-80" v:mID="20" v:groupContext="shape" transform="translate(180,-448)">
			<title>Sheet.20</title>
			<desc>3</desc>
			<v:textBlock v:margins="rect(4,4,4,4)"/>
			<v:textRect cx="9.5" cy="602" width="19.01" height="20"/>
			<rect x="0" y="592" width="19" height="20" class="st10"/>
			<text x="6.46" y="605.6" class="st11" v:langID="1033"><v:paragraph v:horizAlign="1"/><v:tabList/>3</text>		</g>
		<g id="shape21-83" v:mID="21" v:groupContext="shape" transform="translate(603,-506.5)">
			<title>Sheet.21</title>
			<desc>4</desc>
			<v:textBlock v:margins="rect(4,4,4,4)"/>
			<v:textRect cx="9.5" cy="602" width="19.01" height="20"/>
			<rect x="0" y="592" width="19" height="20" class="st10"/>
			<text x="6.46" y="605.6" class="st11" v:langID="1033"><v:paragraph v:horizAlign="1"/><v:tabList/>4</text>		</g>
		<g id="shape22-86" v:mID="22" v:groupContext="shape" transform="translate(648,-458)">
			<title>Sheet.22</title>
			<desc>4 + (sectors+1)</desc>
			<v:textBlock v:margins="rect(4,4,4,4)"/>
			<v:textRect cx="42.75" cy="602" width="85.5" height="20"/>
			<rect x="0" y="592" width="85.5" height="20" class="st10"/>
			<text x="4" y="605.6" class="st11" v:langID="1033"><v:paragraph/><v:tabList/>4 + (sectors+1)</text>		</g>
		<g id="shape23-89" v:mID="23" v:groupContext="shape" transform="translate(605.25,-196)">
			<title>Sheet.23</title>
			<desc>4 + 2*(sectors+1) + 1</desc>
			<v:textBlock v:margins="rect(4,4,4,4)"/>
			<v:textRect cx="61.875" cy="602" width="123.75" height="20"/>
			<rect x="0" y="592" width="123.75" height="20" class="st10"/>
			<text x="4" y="605.6" class="st11" v:langID="1033"><v:paragraph/><v:tabList/>4 + 2*(sectors+1) + 1</text>		</g>
		<g id="shape24-92" v:mID="24" v:groupContext="shape" transform="translate(648,-242)">
			<title>Sheet.24</title>
			<desc>4 + (sectors+1) + 1</desc>
			<v:textBlock v:margins="rect(4,4,4,4)"/>
			<v:textRect cx="49.5" cy="602" width="99" height="20"/>
			<rect x="0" y="592" width="99" height="20" class="st10"/>
			<text x="4" y="605.6" class="st11" v:langID="1033"><v:paragraph/><v:tabList/>4 + (sectors+1) + 1</text>		</g>
		<g id="shape25-95" v:mID="25" v:groupContext="shape" transform="translate(173.25,-196)">
			<title>Sheet.25</title>
			<desc>4 + 2*(sectors+1) + 2</desc>
			<v:textBlock v:margins="rect(4,4,4,4)"/>
			<v:textRect cx="57.375" cy="602" width="114.75" height="20"/>
			<rect x="0" y="592" width="114.75" height="20" class="st10"/>
			<text x="4" y="605.6" class="st11" v:langID="1033"><v:paragraph/><v:tabList/>4 + 2*(sectors+1) + 2</text>		</g>
		<g id="shape26-98" v:mID="26" v:groupContext="shape" transform="translate(29.25,-241)">
			<title>Sheet.26</title>
			<desc>4 + 3*(sectors+1) + 2</desc>
			<v:textBlock v:margins="rect(4,4,4,4)"/>
			<v:textRect cx="57.375" cy="602" width="114.75" height="20"/>
			<rect x="0" y="592" width="114.75" height="20" class="st10"/>
			<text x="9.42" y="605.6" class="st11" v:langID="1033"><v:paragraph v:horizAlign="2"/><v:tabList/>4 + 3*(sectors+1) + 2</text>		</g>
		<g id="shape27-101" v:mID="27" v:groupContext="shape" transform="translate(28.125,-459)">
			<title>Sheet.27</title>
			<desc>4 + 3*(sectors+1) + 3</desc>
			<v:textBlock v:margins="rect(4,4,4,4)"/>
			<v:textRect cx="57.375" cy="602" width="114.75" height="20"/>
			<rect x="0" y="592" width="114.75" height="20" class="st10"/>
			<text x="9.42" y="605.6" class="st11" v:langID="1033"><v:paragraph v:horizAlign="2"/><v:tabList/>4 + 3*(sectors+1) + 3</text>		</g>
		<g id="shape28-104" v:mID="28" v:groupContext="shape" transform="translate(167.625,-504)">
			<title>Sheet.28</title>
			<desc>4 + 4*(sectors+1) + 3</desc>
			<v:textBlock v:margins="rect(4,4,4,4)"/>
			<v:textRect cx="57.375" cy="602" width="114.75" height="20"/>
			<rect x="0" y="592" width="114.75" height="20" class="st10"/>
			<text x="9.42" y="605.6" class="st11" v:langID="1033"><v:paragraph v:horizAlign="2"/><v:tabList/>4 + 4*(sectors+1) + 3</text>		</g>
		<g id="shape29-107" v:mID="29" v:groupContext="shape" transform="translate(179.251,-288.749) rotate(-45)">
			<title>Sheet.29</title>
			<path d="M0 612 L37.86 612" class="st1"/>
		</g>
		<g id="shape30-110" v:mID="30" v:groupContext="shape" transform="translate(254.854,-352.982) rotate(-35.7022)">
			<title>Sheet.30</title>
			<path d="M0 612 L37.76 612" class="st1"/>
		</g>
		<g id="shape31-113" v:mID="31" v:groupContext="shape" transform="translate(335.529,-401.993) rotate(-26.856)">
			<title>Sheet.31</title>
			<path d="M0 612 L37.49 612" class="st1"/>
		</g>
		<g id="shape32-116" v:mID="32" v:groupContext="shape" transform="translate(119.734,-219.619) rotate(-53.5481)">
			<title>Sheet.32</title>
			<path d="M0 612 L37.78 612" class="st1"/>
		</g>
		<g id="shape34-119" v:mID="34" v:groupContext="shape" transform="translate(413.344,-434.861) rotate(-18.9414)">
			<title>Sheet.34</title>
			<path d="M0 612 L37.09 612" class="st1"/>
		</g>
		<g id="shape35-122" v:mID="35" v:groupContext="shape" transform="translate(9.83114,34.7449) rotate(-79.7164)">
			<title>Sheet.35</title>
			<path d="M0 612 L36.52 612" class="st1"/>
		</g>
		<g id="shape36-125" v:mID="36" v:groupContext="shape" transform="translate(70.7656,-141.673) rotate(-62.1741)">
			<title>Sheet.36</title>
			<path d="M0 612 L37.52 612" class="st1"/>
		</g>
		<g id="shape37-128" v:mID="37" v:groupContext="shape" transform="translate(36.5184,-64.2426) rotate(-70.1069)">
			<title>Sheet.37</title>
			<path d="M0 612 L37.15 612" class="st1"/>
		</g>
		<g id="shape1-131" v:mID="1" v:groupContext="shape" transform="translate(144,-216)">
			<title>Sheet.1</title>
			<rect x="0" y="324" width="504" height="288" rx="31.5" ry="31.5" class="st6"/>
		</g>
		<g id="shape38-133" v:mID="38" v:groupContext="shape" transform="translate(1050.52,-329.523) rotate(45)">
			<title>Sheet.38</title>
			<desc>sectors</desc>
			<v:textBlock v:margins="rect(4,4,4,4)"/>
			<v:textRect cx="24.75" cy="601.454" width="49.5" height="21.0919"/>
			<rect x="0" y="590.908" width="49.5" height="21.0919" class="st12"/>
			<text x="7.27" y="605.05" class="st7" v:langID="1033"><v:paragraph v:horizAlign="1"/><v:tabList/>sectors</text>		</g>
		<g id="group48-136" transform="translate(1224,360) rotate(90)" v:mID="48" v:groupContext="group">
			<title>Sheet.48</title>
			<g id="shape39-137" v:mID="39" v:groupContext="shape" transform="translate(-113.685,10.6518) rotate(-10.7054)">
				<title>Sheet.39</title>
				<path d="M0 612 L36.55 612" class="st1"/>
			</g>
			<g id="shape40-140" v:mID="40" v:groupContext="shape" transform="translate(-432.749,179.251) rotate(-45)">
				<title>Sheet.40</title>
				<path d="M0 612 L37.86 612" class="st1"/>
			</g>
			<g id="shape41-143" v:mID="41" v:groupContext="shape" transform="translate(-357.146,115.018) rotate(-35.7022)">
				<title>Sheet.41</title>
				<path d="M0 612 L37.76 612" class="st1"/>
			</g>
			<g id="shape42-146" v:mID="42" v:groupContext="shape" transform="translate(-276.471,66.0074) rotate(-26.856)">
				<title>Sheet.42</title>
				<path d="M0 612 L37.49 612" class="st1"/>
			</g>
			<g id="shape43-149" v:mID="43" v:groupContext="shape" transform="translate(-492.266,248.381) rotate(-53.5481)">
				<title>Sheet.43</title>
				<path d="M0 612 L37.78 612" class="st1"/>
			</g>
			<g id="shape44-152" v:mID="44" v:groupContext="shape" transform="translate(-198.656,33.1392) rotate(-18.9414)">
				<title>Sheet.44</title>
				<path d="M0 612 L37.09 612" class="st1"/>
			</g>
			<g id="shape45-155" v:mID="45" v:groupContext="shape" transform="translate(-602.169,502.745) rotate(-79.7164)">
				<title>Sheet.45</title>
				<path d="M0 612 L36.52 612" class="st1"/>
			</g>
			<g id="shape46-158" v:mID="46" v:groupContext="shape" transform="translate(-541.234,326.327) rotate(-62.1741)">
				<title>Sheet.46</title>
				<path d="M0 612 L37.52 612" class="st1"/>
			</g>
			<g id="shape47-161" v:mID="47" v:groupContext="shape" transform="translate(-575.482,403.757) rotate(-70.1069)">
				<title>Sheet.47</title>
				<path d="M0 612 L37.15 612" class="st1"/>
			</g>
		</g>
		<g id="group49-164" transform="translate(180,972) rotate(180)" v:mID="49" v:groupContext="group">
			<title>Sheet.49</title>
			<g id="shape50-165" v:mID="50" v:groupContext="shape" transform="translate(-113.685,10.6518) rotate(-10.7054)">
				<title>Sheet.50</title>
				<path d="M0 612 L36.55 612" class="st1"/>
			</g>
			<g id="shape51-168" v:mID="51" v:groupContext="shape" transform="translate(-432.749,179.251) rotate(-45)">
				<title>Sheet.51</title>
				<path d="M0 612 L37.86 612" class="st1"/>
			</g>
			<g id="shape52-171" v:mID="52" v:groupContext="shape" transform="translate(-357.146,115.018) rotate(-35.7022)">
				<title>Sheet.52</title>
				<path d="M0 612 L37.76 612" class="st1"/>
			</g>
			<g id="shape53-174" v:mID="53" v:groupContext="shape" transform="translate(-276.471,66.0074) rotate(-26.856)">
				<title>Sheet.53</title>
				<path d="M0 612 L37.49 612" class="st1"/>
			</g>
			<g id="shape54-177" v:mID="54" v:groupContext="shape" transform="translate(-492.266,248.381) rotate(-53.5481)">
				<title>Sheet.54</title>
				<path d="M0 612 L37.78 612" class="st1"/>
			</g>
			<g id="shape55-180" v:mID="55" v:groupContext="shape" transform="translate(-198.656,33.1392) rotate(-18.9414)">
				<title>Sheet.55</title>
				<path d="M0 612 L37.09 612" class="st1"/>
			</g>
			<g id="shape56-183" v:mID="56" v:groupContext="shape" transform="translate(-602.169,502.745) rotate(-79.7164)">
				<title>Sheet.56</title>
				<path d="M0 612 L36.52 612" class="st1"/>
			</g>
			<g id="shape57-186" v:mID="57" v:groupContext="shape" transform="translate(-541.234,326.327) rotate(-62.1741)">
				<title>Sheet.57</title>
				<path d="M0 612 L37.52 612" class="st1"/>
			</g>
			<g id="shape58-189" v:mID="58" v:groupContext="shape" transform="translate(-575.482,403.757) rotate(-70.1069)">
				<title>Sheet.58</title>
				<path d="M0 612 L37.15 612" class="st1"/>
			</g>
		</g>
		<g id="group59-192" transform="translate(-432,144) rotate(-90)" v:mID="59" v:groupContext="group">
			<title>Sheet.59</title>
			<g id="shape60-193" v:mID="60" v:groupContext="shape" transform="translate(-113.685,10.6518) rotate(-10.7054)">
				<title>Sheet.60</title>
				<path d="M0 612 L36.55 612" class="st1"/>
			</g>
			<g id="shape61-196" v:mID="61" v:groupContext="shape" transform="translate(-432.749,179.251) rotate(-45)">
				<title>Sheet.61</title>
				<path d="M0 612 L37.86 612" class="st1"/>
			</g>
			<g id="shape62-199" v:mID="62" v:groupContext="shape" transform="translate(-357.146,115.018) rotate(-35.7022)">
				<title>Sheet.62</title>
				<path d="M0 612 L37.76 612" class="st1"/>
			</g>
			<g id="shape63-202" v:mID="63" v:groupContext="shape" transform="translate(-276.471,66.0074) rotate(-26.856)">
				<title>Sheet.63</title>
				<path d="M0 612 L37.49 612" class="st1"/>
			</g>
			<g id="shape64-205" v:mID="64" v:groupContext="shape" transform="translate(-492.266,248.381) rotate(-53.5481)">
				<title>Sheet.64</title>
				<path d="M0 612 L37.78 612" class="st1"/>
			</g>
			<g id="shape65-208" v:mID="65" v:groupContext="shape" transform="translate(-198.656,33.1392) rotate(-18.9414)">
				<title>Sheet.65</title>
				<path d="M0 612 L37.09 612" class="st1"/>
			</g>
			<g id="shape66-211" v:mID="66" v:groupContext="shape" transform="translate(-602.169,502.745) rotate(-79.7164)">
				<title>Sheet.66</title>
				<path d="M0 612 L36.52 612" class="st1"/>
			</g>
			<g id="shape67-214" v:mID="67" v:groupContext="shape" transform="translate(-541.234,326.327) rotate(-62.1741)">
				<title>Sheet.67</title>
				<path d="M0 612 L37.52 612" class="st1"/>
			</g>
			<g id="shape68-217" v:mID="68" v:groupContext="shape" transform="translate(-575.482,403.757) rotate(-70.1069)">
				<title>Sheet.68</title>
				<path d="M0 612 L37.15 612" class="st1"/>
			</g>
		</g>
	</g>
</svg>
